<?xml version="1.0" standalone="no"?>
<!DOCTYPE svg PUBLIC "-//W3C//DTD SVG 20010904//EN"
 "http://www.w3.org/TR/2001/REC-SVG-20010904/DTD/svg10.dtd">
<svg version="1.0" xmlns="http://www.w3.org/2000/svg"
 width="512.000000pt" height="512.000000pt" viewBox="0 0 512.000000 512.000000"
 preserveAspectRatio="xMidYMid meet">
<metadata>
Created by potrace 1.15, written by Peter Selinger 2001-2017
</metadata>
<g transform="translate(0.000000,512.000000) scale(0.100000,-0.100000)"
fill="#000000" stroke="none">
<path d="M0 2560 l0 -2560 2560 0 2560 0 0 2560 0 2560 -2560 0 -2560 0 0
-2560z m2495 2144 c113 -78 240 -189 395 -344 148 -149 290 -304 290 -318 0
-4 -7 1 -14 11 -16 21 -30 22 -22 1 3 -8 2 -13 -3 -10 -12 8 -24 -25 -13 -36
11 -11 44 1 36 13 -3 5 2 6 10 3 9 -3 16 -1 16 5 0 6 18 -9 41 -34 24 -26 38
-49 33 -56 -4 -7 -3 -9 4 -5 19 11 249 -275 236 -295 -4 -7 -3 -10 3 -6 6 4
17 -1 25 -11 24 -27 71 -105 59 -98 -7 5 -11 -5 -11 -27 0 -36 20 -54 43 -40
7 4 5 -2 -3 -12 -8 -10 -10 -16 -4 -12 7 4 19 -4 28 -18 20 -31 21 -41 1 -25
-12 10 -15 9 -15 -5 0 -12 -5 -15 -17 -11 -9 4 -20 2 -23 -4 -5 -8 -9 -6 -13
5 -4 9 -3 13 3 10 6 -3 10 -1 10 4 0 6 -3 11 -8 11 -4 0 -13 15 -21 33 -8 17
-26 47 -39 65 -19 25 -22 36 -14 44 7 7 12 8 12 3 0 -6 5 -3 10 5 9 13 12 13
24 -2 20 -27 29 -21 10 7 -12 18 -20 22 -28 15 -8 -6 -19 -5 -33 5 -11 8 -24
11 -27 7 -4 -4 -16 4 -28 18 -11 14 -17 20 -14 14 3 -6 -1 -11 -9 -11 -11 0
-12 5 -3 21 6 12 7 18 3 14 -9 -8 -21 4 -54 50 -18 26 -26 31 -33 20 -7 -10
-8 -10 -7 2 3 18 -39 90 -52 90 -5 0 -8 3 -6 8 3 9 -40 52 -53 52 -5 0 -7 7
-4 15 4 8 1 15 -5 15 -14 0 -63 78 -56 89 3 5 -5 7 -17 3 -14 -3 -19 -2 -14 6
4 7 1 12 -8 12 -8 0 -20 10 -27 21 -9 18 -13 19 -21 8 -8 -11 -9 -11 -5 3 3 9
0 24 -8 34 -7 10 -11 24 -8 31 3 7 -2 15 -10 19 -9 3 -13 12 -10 21 5 12 2 13
-14 5 -12 -7 -25 -7 -34 -1 -7 5 -10 9 -5 9 6 0 -5 16 -24 35 -21 22 -28 35
-19 35 7 0 3 6 -10 13 -30 15 -38 34 -17 39 13 2 11 8 -9 33 -13 17 -24 25
-25 18 0 -6 7 -18 15 -26 13 -13 13 -16 0 -27 -11 -9 -15 -10 -15 -1 0 7 -6 9
-12 5 -10 -6 -10 -4 0 7 14 15 16 33 3 24 -5 -3 -13 0 -17 6 -4 8 -3 9 4 5 21
-13 13 23 -10 44 -18 16 -20 23 -10 29 11 7 10 10 -3 14 -11 5 -14 3 -9 -5 5
-8 2 -9 -10 -5 -14 5 -15 3 -6 -12 8 -15 6 -20 -10 -24 -11 -3 -18 -2 -15 3 3
4 -5 10 -17 13 -12 4 -19 9 -15 13 3 4 2 15 -4 26 -10 18 -8 19 13 13 l23 -6
-24 21 c-19 16 -26 18 -33 8 -5 -8 -7 -3 -4 15 3 15 1 25 -4 22 -5 -3 -15 1
-23 9 -8 8 -18 11 -23 7 -5 -4 -20 -2 -34 5 -15 8 -19 14 -10 14 11 1 10 5 -6
18 -11 10 -19 22 -17 29 2 6 -4 10 -14 9 -12 -1 -17 5 -15 17 2 10 -3 17 -12
17 -8 0 -24 14 -36 30 -12 17 -18 30 -13 30 17 0 -35 29 -74 40 -52 16 -79 9
-123 -32 -20 -18 -47 -39 -61 -46 -43 -23 -131 -113 -125 -129 4 -9 2 -11 -5
-7 -7 4 -10 1 -7 -6 5 -15 -39 -66 -49 -57 -9 10 -63 -54 -63 -75 0 -9 -12
-24 -27 -32 -30 -15 -66 -54 -71 -77 -11 -48 -46 -107 -72 -123 -17 -9 -30
-21 -30 -25 0 -4 -27 -40 -60 -79 -33 -40 -60 -76 -60 -82 0 -5 -5 -10 -11
-10 -5 0 -8 -4 -5 -9 4 -5 1 -11 -4 -13 -6 -2 -12 -13 -12 -25 -2 -14 -7 -19
-17 -15 -10 4 -13 1 -8 -12 4 -10 3 -15 -3 -11 -5 3 -12 -6 -16 -20 -3 -14
-16 -33 -28 -43 -30 -23 -54 -61 -60 -96 -3 -16 -15 -39 -27 -52 -13 -13 -19
-24 -14 -24 4 0 2 -8 -7 -17 -8 -10 -20 -31 -26 -46 -7 -17 -17 -25 -24 -21
-7 4 -8 3 -4 -4 4 -7 3 -12 -2 -12 -5 0 -12 -13 -15 -28 -3 -16 -23 -46 -45
-69 -21 -22 -62 -82 -91 -134 -71 -129 -98 -177 -132 -227 -16 -24 -29 -45
-29 -47 0 -8 -49 -76 -78 -109 -16 -19 -39 -37 -51 -41 -12 -3 -19 -11 -15
-16 7 -12 -24 -49 -42 -49 -21 0 -38 -67 -22 -87 5 -7 6 -18 2 -25 -6 -10 -5
-10 8 0 14 11 16 10 11 -6 -4 -18 -52 -33 -113 -36 -9 -1 -18 -16 -22 -41 -4
-22 -12 -68 -18 -102 -9 -51 -8 -67 4 -98 9 -21 16 -48 16 -62 0 -27 -23 -56
-35 -45 -4 4 -5 -9 -1 -28 3 -18 11 -37 18 -41 6 -4 8 -18 4 -34 -4 -17 -3
-24 3 -21 10 6 8 -14 -5 -57 -3 -12 -17 -38 -29 -57 -13 -19 -33 -63 -45 -97
-18 -52 -20 -69 -11 -96 11 -32 5 -72 -17 -113 -5 -10 -13 -39 -16 -64 -3 -25
-15 -57 -26 -72 -11 -15 -20 -34 -20 -42 0 -9 -9 -35 -19 -58 -30 -66 -60
-172 -51 -178 5 -3 7 -17 7 -32 -1 -14 -5 -24 -8 -22 -3 2 -6 -12 -5 -32 1
-19 8 -39 16 -44 12 -7 12 -17 3 -57 -7 -26 -15 -73 -19 -103 -3 -30 -20 -91
-36 -134 -16 -43 -31 -100 -33 -126 -3 -26 -12 -67 -20 -90 -16 -47 -20 -94
-6 -86 5 3 11 -10 14 -29 4 -22 20 -51 43 -75 l38 -40 552 0 551 0 6 63 c4 34
9 125 12 202 8 201 14 254 33 283 12 19 13 27 4 30 -7 2 -9 9 -6 15 5 8 2 8
-7 0 -7 -7 -23 -13 -35 -13 -12 0 -35 -11 -51 -24 -87 -72 -278 -124 -381
-103 -27 6 -57 7 -68 2 -28 -12 -134 -5 -174 11 -19 8 -45 12 -57 9 -15 -3
-23 -1 -23 7 1 52 21 209 33 265 9 37 21 102 27 143 13 86 48 210 127 460 46
147 61 181 90 211 19 20 48 40 65 43 53 11 160 67 206 110 27 25 56 65 73 102
32 70 20 66 214 68 82 1 111 -3 160 -22 80 -30 114 -57 97 -73 -7 -8 -12 -39
-12 -75 0 -99 -9 -114 -98 -156 -90 -44 -96 -48 -142 -108 -19 -25 -37 -46
-40 -47 -3 -2 -4 -45 -3 -97 l2 -94 -30 -12 c-16 -7 -29 -18 -30 -24 0 -6 -4
-1 -10 12 -27 68 -6 209 43 289 29 48 110 117 173 146 53 26 55 28 55 66 0 22
-4 50 -9 64 -18 47 -167 79 -251 55 -39 -12 -51 -23 -94 -86 -54 -81 -107
-121 -170 -130 -23 -2 -50 -10 -61 -15 -11 -6 -29 -12 -40 -14 -40 -6 -76 -26
-94 -52 -14 -21 -45 -117 -44 -141 0 -3 -10 -36 -23 -73 -13 -37 -28 -102 -34
-144 -6 -43 -15 -80 -21 -83 -5 -4 -9 -11 -8 -16 3 -10 -16 -80 -34 -129 -7
-16 -12 -73 -14 -125 -1 -52 -5 -133 -10 -180 -8 -81 -7 -85 12 -86 11 -1 49
-7 85 -14 134 -24 302 10 475 97 109 55 154 60 193 18 15 -15 21 -24 13 -20
-11 6 -13 -3 -9 -51 3 -34 -1 -85 -9 -119 -8 -33 -13 -71 -12 -85 2 -46 -1
-60 -15 -60 -19 0 -26 -22 -26 -81 0 -37 3 -47 14 -43 9 3 15 -5 20 -26 7 -38
-3 -110 -15 -110 -5 0 -8 -8 -7 -18 5 -66 -1 -81 -40 -91 -56 -15 -536 -9
-555 7 -20 17 -405 21 -416 4 -3 -6 -20 -12 -36 -13 -86 -4 -153 -3 -178 4
-22 6 -27 5 -22 -5 4 -7 -8 5 -26 26 -19 22 -37 47 -41 55 -19 44 5 351 31
399 15 27 41 166 41 216 0 25 5 57 11 73 20 53 49 176 49 211 0 20 4 49 10 66
5 17 30 121 55 231 25 110 71 278 102 373 57 171 57 172 45 230 -39 191 -34
335 15 393 14 16 31 29 38 29 7 0 15 17 18 41 7 50 57 106 162 181 76 54 103
90 195 263 159 299 355 609 552 872 68 91 110 133 132 133 7 0 18 22 25 49 25
97 127 230 290 375 60 54 129 112 153 128 61 41 102 35 193 -28z m-142 -144
c-4 -16 0 -20 18 -20 12 0 31 -8 42 -17 20 -18 20 -18 1 12 l-19 30 29 -23
c40 -31 56 -28 20 4 -39 35 -10 19 46 -25 53 -42 60 -50 54 -66 -3 -6 2 -12
10 -12 8 0 12 5 9 11 -4 6 1 5 10 -3 9 -7 14 -18 10 -24 -4 -6 -1 -7 7 -2 15
9 252 -223 243 -238 -3 -6 -1 -7 5 -4 5 4 48 -32 95 -80 83 -87 212 -233 204
-233 -2 0 19 -24 47 -53 70 -73 117 -132 222 -272 151 -203 179 -250 175 -294
-1 -22 2 -42 8 -45 7 -4 -3 -28 -25 -61 -61 -92 -27 -135 81 -101 62 19 68 20
60 4 -3 -7 0 -6 6 4 15 19 27 2 153 -221 383 -680 611 -1346 716 -2086 22
-153 23 -181 10 -150 -8 19 -9 19 -9 -2 -1 -13 4 -23 9 -23 6 0 10 -4 10 -10
0 -5 -7 -7 -15 -3 -9 3 -15 2 -14 -3 4 -22 -2 -34 -17 -34 -14 0 -14 -3 -4
-15 11 -13 5 -15 -44 -15 l-55 0 5 33 5 32 -18 -28 c-10 -15 -23 -25 -30 -22
-7 2 -13 0 -13 -5 0 -6 -218 -10 -595 -10 -505 0 -594 2 -589 14 3 8 -5 21
-18 30 -15 10 -17 16 -8 16 13 0 13 2 0 10 -11 7 -17 5 -21 -8 -3 -9 -11 31
-18 88 -12 108 -22 257 -14 208 2 -16 8 -28 13 -28 4 0 6 10 2 22 -5 21 -4 22
11 9 15 -12 17 -11 18 10 l0 24 11 -25 c6 -15 12 -20 15 -12 3 6 18 12 34 12
21 0 32 -6 39 -23 8 -20 9 -18 10 13 2 34 2 34 11 -10 13 -66 40 -85 135 -95
44 -4 93 -9 109 -10 17 -2 41 -6 55 -10 14 -3 52 -9 85 -12 l60 -5 42 44 c35
36 45 54 54 103 6 33 9 95 7 137 -2 48 1 77 7 75 5 -2 21 -25 35 -52 29 -57
55 -73 44 -28 -4 15 -11 34 -17 40 -6 9 -6 13 1 13 5 0 12 10 15 22 9 33 -30
71 -65 66 -24 -4 -28 -1 -33 26 -26 163 -47 258 -80 364 -9 29 -13 58 -9 64 4
6 3 8 -3 5 -5 -3 -17 16 -25 43 -9 29 -12 52 -7 56 15 9 10 24 -6 18 -11 -5
-14 0 -11 22 2 16 9 41 16 56 17 36 1 75 -35 84 -13 3 -22 10 -19 16 8 13 -16
39 -29 31 -6 -4 -7 -1 -2 7 5 8 2 17 -6 24 -8 6 -20 23 -28 39 -8 15 -19 26
-25 24 -9 -3 -109 137 -118 166 -2 4 -21 9 -43 12 -108 12 -130 17 -110 25 13
5 -4 10 -55 18 -41 6 -93 20 -115 32 -21 11 -36 20 -32 20 4 0 -1 10 -13 22
-16 18 -23 19 -33 9 -10 -10 -8 -11 8 -5 17 7 18 6 5 -8 -14 -14 -18 -11 -46
31 -67 98 -60 95 -195 88 -249 -14 -375 -61 -414 -154 -19 -45 -20 -217 -2
-253 9 -18 30 -31 79 -47 87 -27 121 -53 148 -109 19 -38 22 -57 18 -112 -5
-66 -31 -137 -47 -128 -5 3 -17 -4 -27 -17 -16 -19 -17 -20 -1 -8 9 8 20 11
23 9 7 -8 -48 -46 -83 -59 -22 -7 -37 -28 -67 -90 -21 -44 -45 -83 -52 -86 -8
-3 -12 -9 -9 -14 6 -9 -43 -44 -51 -36 -3 3 4 8 15 12 21 6 30 35 10 35 -5 0
-7 -5 -3 -12 5 -8 2 -9 -9 -5 -10 3 -17 2 -17 -4 0 -6 -5 -7 -10 -4 -6 3 -13
-1 -16 -9 -3 -9 -16 -16 -28 -17 -20 0 -20 -1 -1 -9 14 -6 0 -9 -45 -9 -109
-1 -177 45 -235 158 -20 41 -32 52 -72 67 -123 46 -166 95 -171 197 -5 80 14
140 56 180 29 27 110 71 152 82 60 15 65 26 68 156 4 146 1 153 -100 201 -94
45 -170 62 -244 54 -91 -9 -173 -21 -178 -27 -3 -2 -14 -26 -25 -52 -14 -31
-25 -46 -32 -41 -8 5 -9 3 -4 -5 10 -17 -53 -81 -72 -74 -8 3 -13 0 -11 -7 4
-17 -60 -54 -138 -80 -91 -31 -119 -66 -166 -207 -51 -154 -135 -432 -141
-469 -3 -16 -10 -51 -16 -79 -15 -72 -32 -182 -38 -240 -2 -27 -8 -75 -13
-104 -15 -103 5 -124 151 -161 70 -19 101 -21 184 -16 55 3 127 12 161 20 34
8 72 17 86 20 14 2 39 11 56 20 44 23 54 19 12 -4 -40 -22 -33 -24 25 -9 22 6
51 11 65 13 l25 3 -11 -196 c-6 -108 -12 -197 -13 -198 0 -2 -235 -3 -520 -3
l-520 0 -15 22 c-29 42 -17 206 28 360 13 46 27 112 30 148 4 36 13 88 20 115
26 90 36 145 36 185 0 23 7 57 15 77 8 19 15 46 15 59 0 42 90 406 117 474 14
36 30 80 35 99 7 26 12 31 19 20 6 -9 7 -3 3 19 -4 20 -2 32 4 32 6 0 11 8 10
17 0 18 6 50 17 83 3 10 -1 45 -10 78 -18 70 -18 75 -6 68 5 -4 8 18 7 50 -1
30 2 58 7 61 4 3 6 11 3 18 -2 7 1 16 9 18 8 4 12 19 11 40 -1 30 3 36 30 46
47 17 59 53 34 101 l-20 38 44 37 c24 20 57 44 73 53 16 9 36 22 45 27 25 17
84 107 159 247 39 73 79 144 88 158 9 14 30 50 45 80 58 110 267 432 389 598
l91 122 42 0 c56 0 76 25 67 85 -8 59 37 140 136 246 61 67 216 209 227 209 1
0 0 -9 -3 -20z m1574 -1596 c24 -24 25 -24 20 -4 -4 15 -2 19 6 11 7 -5 12
-27 11 -50 0 -22 2 -38 6 -36 3 2 15 -12 25 -31 14 -25 21 -31 28 -22 6 9 7 6
4 -9 -3 -13 0 -26 5 -30 7 -4 8 -1 3 7 -5 9 -4 11 4 6 6 -4 9 -16 6 -27 -4
-10 -2 -19 2 -19 5 0 15 -16 22 -35 7 -21 17 -33 23 -29 7 5 9 0 6 -14 -4 -12
-2 -20 3 -16 5 3 9 -3 9 -13 0 -10 3 -28 6 -39 4 -15 -2 -30 -21 -48 -14 -14
-28 -26 -30 -26 -3 0 -14 18 -25 39 -13 26 -16 42 -9 46 7 5 6 11 -1 20 -7 8
-9 18 -6 23 3 6 -2 16 -11 23 -15 13 -16 11 -10 -10 7 -28 -2 -20 -32 31 -18
30 -19 37 -7 32 13 -5 15 0 12 26 -3 23 0 30 10 26 11 -4 11 -2 1 14 -6 11
-17 20 -24 20 -7 0 -13 4 -13 9 0 5 -11 11 -25 13 -21 4 -23 3 -14 -9 7 -7 10
-16 7 -18 -3 -3 -13 12 -24 32 -10 21 -30 55 -43 76 -21 32 -22 40 -10 48 26
16 59 9 86 -17z m-996 -591 c8 -9 9 -14 2 -10 -6 4 -13 2 -15 -3 -2 -6 -37
-13 -78 -15 -117 -7 -168 -16 -180 -30 -6 -7 -19 -11 -29 -8 -34 9 -97 -33
-113 -74 -16 -42 -13 -133 5 -133 12 0 0 -14 -14 -16 -5 -1 -13 -2 -19 -3 -5
0 -10 -8 -10 -16 0 -8 -4 -15 -9 -15 -5 0 -16 -3 -25 -6 -14 -5 -16 7 -16 101
l0 107 38 38 c46 47 141 78 269 89 150 14 179 13 194 -6z m209 -197 c19 -3 86
-10 148 -15 62 -6 120 -15 130 -20 16 -10 16 -10 0 -11 -10 0 -18 -5 -18 -11
0 -8 -29 -10 -102 -5 -57 3 -129 6 -161 6 -33 0 -56 4 -52 9 3 5 0 13 -6 16
-5 4 -8 14 -5 22 5 11 2 13 -11 9 -10 -4 -14 -4 -11 0 4 4 1 16 -7 28 -25 35
-17 38 23 8 20 -17 53 -32 72 -36z m400 -234 c29 -54 45 -72 83 -92 25 -14 50
-30 54 -34 4 -5 3 -6 -3 -3 -5 3 -22 -4 -35 -16 -30 -26 -32 -73 -5 -122 9
-16 16 -36 16 -43 0 -7 9 -38 19 -70 10 -31 21 -79 24 -107 2 -27 2 -40 0 -27
-2 12 -9 22 -15 22 -6 0 -8 -8 -5 -19 3 -14 0 -17 -14 -14 -12 3 -19 0 -19 -8
-1 -8 -21 47 -47 121 -34 100 -46 152 -47 203 -2 56 -6 70 -24 82 -11 9 -26
14 -33 13 -6 -2 -22 17 -35 41 -26 48 -22 66 23 109 14 13 21 27 17 35 -4 6
-3 9 1 4 5 -4 25 -38 45 -75z m-810 -165 c0 -5 7 -4 15 3 58 48 -57 -215 -117
-270 -18 -16 -45 -34 -59 -40 -31 -13 -49 -48 -49 -94 0 -35 -35 -90 -51 -81
-5 4 -9 -2 -9 -11 0 -10 -3 -15 -6 -11 -3 3 -14 -3 -25 -14 -11 -11 -25 -17
-31 -13 -7 4 -8 3 -4 -4 8 -13 -30 -36 -44 -27 -6 3 -10 2 -10 -4 0 -29 -181
-38 -230 -10 -14 7 -36 15 -49 17 -49 7 -64 22 -60 59 1 9 -71 34 -81 28 -11
-7 -42 43 -35 55 3 6 0 10 -7 11 -10 0 -10 2 -1 6 24 9 -4 39 -49 52 -24 7
-65 29 -91 50 -27 20 -53 35 -57 34 -11 -3 -54 56 -47 64 3 2 13 -9 22 -27 9
-18 19 -29 22 -27 3 3 -2 16 -11 29 -18 25 -21 42 -6 33 6 -3 13 1 16 9 3 9
15 16 26 16 10 0 16 5 13 10 -3 6 -2 10 4 10 5 0 12 -9 16 -19 12 -40 145
-131 189 -131 9 0 20 -9 26 -19 12 -23 13 -42 1 -23 -7 11 -9 11 -14 -2 -6
-14 4 -21 18 -13 10 5 36 -44 29 -56 -4 -6 -4 -9 1 -5 9 8 42 -32 37 -45 -1
-5 2 -6 8 -2 5 3 25 -5 43 -19 37 -28 100 -45 167 -46 112 0 173 45 230 172
29 64 39 77 68 88 90 32 139 121 143 258 l3 81 23 -32 c13 -17 23 -35 23 -40z
m980 -573 c0 -22 27 -48 33 -31 3 6 6 1 8 -13 4 -42 4 -45 13 -58 20 -33 26
-79 14 -129 -6 -29 -15 -53 -20 -53 -12 0 -10 -38 4 -42 8 -3 8 -12 1 -33 -15
-46 -63 -58 -161 -40 -116 22 -231 25 -241 7 -12 -20 -23 30 -20 86 2 31 7 42
23 46 21 5 21 5 1 20 -11 8 -22 10 -23 5 -2 -5 -8 -7 -13 -3 -5 3 -9 1 -9 -5
0 -17 -59 -5 -83 17 -27 24 -135 82 -154 82 -7 0 -16 7 -19 15 -7 17 -34 21
-34 4 0 -5 -4 -8 -8 -5 -4 2 -8 -4 -8 -14 0 -10 5 -16 11 -14 12 5 16 -37 15
-153 0 -45 4 -84 10 -88 14 -9 13 -71 -2 -95 -10 -15 -9 -22 4 -37 9 -10 19
-41 22 -68 3 -28 9 -67 14 -87 8 -31 7 -38 -5 -38 -21 0 -43 -25 -43 -51 0
-61 -13 7 -35 187 -14 109 -29 231 -35 269 -5 39 -9 98 -10 133 0 57 3 67 29
93 20 19 40 29 60 29 40 0 151 -42 214 -81 27 -16 70 -38 96 -48 29 -11 45
-23 43 -32 -2 -8 0 -11 4 -7 9 9 34 -10 34 -26 0 -6 -4 -5 -9 3 -14 22 -36 -6
-45 -57 -6 -41 -5 -43 16 -40 13 2 23 8 24 13 1 18 23 61 23 48 1 -7 11 -13
24 -13 12 0 65 -9 117 -20 73 -15 96 -17 103 -7 8 12 2 210 -9 300 -6 39 -4
47 10 47 9 0 16 -7 16 -16z m850 -18 c0 7 10 9 25 7 26 -6 38 -32 50 -112 5
-28 3 -52 -6 -67 -9 -19 -10 -32 -1 -63 7 -21 12 -46 12 -56 0 -10 11 -33 25
-51 27 -35 44 -124 45 -225 0 -51 -2 -57 -27 -68 -14 -7 -29 -8 -33 -4 -3 4
-19 95 -33 201 -15 106 -39 250 -52 319 -28 143 -28 143 -15 123 5 -8 10 -10
10 -4z m98 -743 l-11 -23 -274 0 c-261 0 -274 -1 -290 -20 -16 -19 -30 -20
-218 -20 -200 0 -250 5 -239 21 3 5 -7 9 -21 9 -14 0 -24 -4 -21 -9 8 -13 -40
-18 -196 -21 -121 -2 -138 0 -138 14 0 13 -12 16 -60 16 -52 0 -60 2 -60 19 0
10 7 22 16 25 9 3 351 6 760 6 l744 0 1 38 1 37 9 -35 c6 -23 5 -43 -3 -57z"/>
<path d="M2280 3957 c-25 -12 -47 -24 -50 -28 -3 -3 -21 -15 -40 -26 -19 -12
-46 -34 -60 -50 -300 -345 -499 -643 -591 -887 -44 -117 -44 -119 3 -200 26
-45 41 -58 91 -82 60 -29 62 -29 229 -26 161 2 169 1 190 -20 14 -14 23 -18
26 -10 2 8 11 4 24 -10 l19 -23 -5 30 c-4 21 2 14 21 -25 31 -65 38 -71 78
-68 26 3 34 12 65 73 l36 70 94 8 c65 5 117 4 165 -4 86 -16 297 -15 334 1 17
6 36 28 48 54 12 23 39 63 61 89 22 25 43 59 47 75 26 121 -161 441 -460 787
-33 39 -88 104 -120 145 -77 97 -129 150 -146 150 -8 0 -34 -10 -59 -23z m65
-38 c-3 -3 -35 -25 -72 -47 -51 -30 -84 -60 -130 -118 -85 -108 -104 -131
-157 -193 -38 -45 -45 -61 -44 -92 1 -30 -6 -46 -32 -76 -19 -21 -42 -38 -51
-38 -25 -1 -65 -47 -96 -113 -14 -31 -30 -59 -33 -62 -12 -8 -50 -83 -50 -98
0 -7 -4 -11 -9 -8 -10 7 -24 -41 -26 -94 -1 -19 -5 -58 -10 -85 -6 -41 -4 -53
9 -64 10 -8 16 -9 16 -3 0 6 16 2 35 -10 34 -19 44 -20 208 -13 95 4 187 8
206 10 19 1 52 -2 73 -8 26 -6 42 -6 51 1 22 19 287 36 338 22 24 -7 90 -14
146 -16 l101 -4 47 61 c39 51 46 67 42 93 -3 17 -7 40 -9 51 -2 11 -6 22 -9
25 -4 3 -25 35 -47 71 -22 37 -66 106 -97 153 -31 47 -54 90 -50 96 3 5 0 8
-7 5 -19 -7 -52 45 -50 78 2 20 -1 26 -9 21 -9 -5 -10 -2 -6 10 4 9 3 15 -2
12 -5 -3 -15 2 -22 11 -12 14 -12 16 1 9 8 -5 -4 9 -27 30 -22 22 -49 54 -59
72 -16 28 -17 36 -5 54 11 17 11 22 -1 30 -9 6 -5 7 12 2 24 -6 24 -5 10 13
-25 32 33 -30 75 -81 22 -27 54 -65 71 -85 55 -66 74 -93 69 -101 -3 -5 0 -12
6 -16 8 -5 9 -3 4 7 -17 29 13 -7 58 -72 26 -37 47 -71 47 -77 0 -5 7 -15 15
-22 32 -27 132 -212 105 -195 -11 7 -9 -22 4 -43 4 -7 3 -18 -2 -25 -13 -15
-13 -14 -3 -57 8 -36 -4 -60 -29 -60 -5 0 -10 -4 -10 -9 0 -5 -8 -12 -17 -15
-13 -4 -18 -17 -19 -41 -1 -61 -15 -67 -160 -67 -190 -1 -344 12 -344 28 0 32
-139 6 -147 -27 -4 -13 -11 -18 -21 -14 -12 4 -13 3 -2 -10 11 -13 10 -23 -6
-58 -17 -40 -31 -57 -46 -57 -9 0 -39 91 -33 101 11 17 -25 24 -126 24 -60 0
-112 5 -120 11 -8 6 -38 8 -68 6 -36 -3 -49 -7 -40 -13 20 -12 -12 -12 -45 1
-14 5 -46 12 -71 15 -26 3 -55 10 -65 15 -9 5 -20 7 -23 4 -3 -3 -15 13 -27
37 -27 52 -24 67 35 199 106 236 257 462 494 741 73 86 105 115 167 153 55 32
80 42 85 34 4 -7 6 -15 4 -19z"/>
</g>
</svg>
